<svg version="1.1" id="Layer_1" xmlns="http://www.w3.org/2000/svg" xmlns:xlink="http://www.w3.org/1999/xlink" x="0px" y="0px" viewBox="0 0 1000 600" style="enable-background:new 0 0 1000 600;" xml:space="preserve"><style type="text/css">
	.st0{fill:#6309FF;}
</style><g><g><g><path class="st0" d="M309.9,378.3h15.9v24.4h25.5v-24.4h15.9v62.2h-15.9v-25.3h-25.5v25.3h-15.9V378.3z"></path><path class="st0" d="M391.1,378.3h15.8v37.2c0,3.7,1,6.6,3,8.7s4.9,3.1,8.6,3.1c3.6,0,6.5-1,8.6-3.1c2.1-2,3.1-4.9,3.1-8.7v-37.2
				h15.9v38.1c0,7.8-2.5,13.9-7.5,18.3s-11.7,6.6-20.1,6.6c-4.6,0-8.7-0.6-12.2-1.8c-3.5-1.2-6.4-2.9-8.6-5.1s-3.8-4.8-4.9-7.8
				s-1.6-6.4-1.6-10.2L391.1,378.3L391.1,378.3z"></path><path class="st0" d="M470,378.3h19.5l13.6,31h0.7l13.3-31h19.6v62.2h-15.4v-23.4l0.9-16.7h-0.6l-18.1,39.3l-18.1-39.3h-0.7
				l0.9,16.9v23.3H470V378.3z"></path><path class="st0" d="M576.5,378.3h18.6l22.4,62.2H600l-3-9.4h-22.4l-3.1,9.4h-16.4L576.5,378.3z M593.2,418.9l-1.9-5.8l-5-18
				h-0.6l-5.4,18l-1.9,5.8H593.2z"></path><path class="st0" d="M634.2,378.3h18.2l22.2,39.5h0.7l-0.9-17.5v-22h15.8v62.2H672l-22-39.1h-0.7l0.8,16.9v22.2h-15.9
				L634.2,378.3L634.2,378.3z"></path></g></g><path class="st0" d="M538.5,162.6c-3.6-1.2-7.2-2.4-10.7-3.6c-4.4-1.6-8.7,2.9-8.5,8.8c0.4,11.1,0.8,22.3,1.2,33.4
		c0.1,3.7-1.7,7.1-4.5,8.4c-5.6,2.7-11.3,5.3-17,7.9c-5.7-2.5-11.4-5.2-17-7.9c-2.9-1.4-4.6-4.8-4.5-8.4c0.4-11.1,0.8-22.3,1.2-33.4
		c0.2-6-4.1-10.4-8.5-8.8c-3.6,1.2-7.1,2.5-10.7,3.6c-2.9,1-5.1,4.2-5.4,8.1c-1,13.2-2.1,26.3-3.1,39.5c-0.3,3.7,1.4,7.1,4.2,8.6
		l0,0c6.3,3.3,5.7,14.1-1.2,16.6l0,0c-3.1,1.1-5.4,4.2-5.7,7.9c-1.6,20.1-3.2,40.2-4.8,60.4c-0.3,3.9,1.8,7.5,5.4,8.9
		c4.3,1.7,8.7,3.4,13.1,5.1c5.5,2.1,11.4-2,11.6-8c0.6-18.1,1.3-36.2,1.9-54.3c0.1-3.7,2.3-6.9,5.4-8.1c6.1-2.4,12.1-4.8,18.1-7.4
		c5.9,2.5,12,5,18.1,7.4c3.1,1.2,5.2,4.4,5.4,8.1c0.6,18.1,1.3,36.2,1.9,54.3c0.2,6,6.1,10,11.6,8c4.4-1.7,8.8-3.4,13.1-5.1
		c3.5-1.4,5.7-5,5.4-8.9c-1.6-20.1-3.2-40.2-4.8-60.4c-0.3-3.7-2.5-6.8-5.7-7.9l0,0c-6.9-2.4-7.5-13.3-1.2-16.6l0,0
		c2.9-1.5,4.5-5,4.2-8.6c-1-13.2-2.1-26.3-3.1-39.5C543.6,166.8,541.4,163.6,538.5,162.6z"></path></g></svg>