<svg xmlns="http://www.w3.org/2000/svg" xmlns:xlink="http://www.w3.org/1999/xlink" viewBox="0 0 264.86 53.96"><defs><style>.cls-1{fill:#414042;}.cls-12,.cls-17,.cls-2,.cls-5{opacity:0.5;}.cls-14,.cls-2,.cls-7{fill:url(#linear-gradient);}.cls-11,.cls-18,.cls-21,.cls-3,.cls-4,.cls-6{opacity:0.7;}.cls-3,.cls-8{fill:url(#linear-gradient-2);}.cls-4,.cls-9{fill:url(#linear-gradient-3);}.cls-10,.cls-15,.cls-5{fill:url(#linear-gradient-4);}.cls-13,.cls-19,.cls-6{fill:url(#linear-gradient-5);}.cls-10,.cls-13,.cls-16,.cls-7{opacity:0.8;}.cls-11,.cls-16,.cls-20{fill:url(#linear-gradient-10);}.cls-12,.cls-18{fill:url(#linear-gradient-11);}.cls-17,.cls-21{fill:url(#linear-gradient-18);}.cls-22{fill:#fff;}</style><linearGradient id="linear-gradient" x1="37.1" y1="-0.16" x2="37.1" y2="53.82" gradientUnits="userSpaceOnUse"><stop offset="0" stop-color="#47c0b4"/><stop offset="1" stop-color="#1074bc"/></linearGradient><linearGradient id="linear-gradient-2" x1="30.35" y1="-0.16" x2="30.35" y2="53.82" xlink:href="#linear-gradient"/><linearGradient id="linear-gradient-3" x1="23.61" y1="-0.16" x2="23.61" y2="53.82" xlink:href="#linear-gradient"/><linearGradient id="linear-gradient-4" x1="16.86" y1="-0.16" x2="16.86" y2="53.82" xlink:href="#linear-gradient"/><linearGradient id="linear-gradient-5" x1="43.84" y1="-0.16" x2="43.84" y2="53.82" xlink:href="#linear-gradient"/><linearGradient id="linear-gradient-10" x1="10.12" y1="-0.16" x2="10.12" y2="53.82" xlink:href="#linear-gradient"/><linearGradient id="linear-gradient-11" x1="50.59" y1="-0.16" x2="50.59" y2="53.82" xlink:href="#linear-gradient"/><linearGradient id="linear-gradient-18" x1="3.37" y1="-0.16" x2="3.37" y2="53.82" xlink:href="#linear-gradient"/></defs><title>human-logo</title><g id="Layer_2" data-name="Layer 2"><g id="Layer_1-2" data-name="Layer 1"><path class="cls-1" d="M83.76,34.88H78.23V28.63H73.62v6.25H68.08V18h5.54V24.1h4.61V18h5.54Z"/><path class="cls-1" d="M101.53,27.65c0,2.7-.61,4.29-1.84,5.51a8.08,8.08,0,0,1-5.88,2,8.07,8.07,0,0,1-5.88-2c-1.23-1.23-1.84-2.82-1.84-5.51V18h5.56V27.9a2.31,2.31,0,0,0,.56,1.84,2.38,2.38,0,0,0,3.19,0,2.35,2.35,0,0,0,.54-1.84V18h5.59Z"/><path class="cls-1" d="M123.82,34.88h-5.44l-.2-9.68L116,34.88H111.2L109,25.2l-.2,9.68h-5.44l1-16.91h7.11l2.13,9.19L115.73,18h7.11Z"/><path class="cls-1" d="M142.2,34.88h-6l-.66-2.38H130.7l-.64,2.38h-5.76L130.19,18h6.13Zm-7.82-6.62-1.25-4.53-1.25,4.53Z"/><path class="cls-1" d="M159.35,34.88h-5.76l-5.15-9.43s.12,1.84.12,3.06v6.37h-5.39V18h6l4.9,9.43s-.12-1.84-.12-3.06V18h5.39Z"/><path class="cls-1" d="M178.63,28.26a7.38,7.38,0,0,1-4.71,1.35h-1.81v5.27h-5.54V18h7.35a7.38,7.38,0,0,1,4.71,1.35,5.41,5.41,0,0,1,1.91,4.48A5.39,5.39,0,0,1,178.63,28.26Zm-4.29-5.81a2,2,0,0,0-1.35-.32h-.91v3.31H173a2.21,2.21,0,0,0,1.35-.29A1.49,1.49,0,0,0,175,23.8,1.49,1.49,0,0,0,174.34,22.46Z"/><path class="cls-1" d="M191.19,27.41h-.25a3.76,3.76,0,0,0-1.59-.37,2.14,2.14,0,0,0-1.72.81,3.51,3.51,0,0,0-.49,2.13v4.9h-5.51V22.38h5.51L187.08,24a3.33,3.33,0,0,1,3.14-1.84,2.36,2.36,0,0,1,1.23.25Z"/><path class="cls-1" d="M198.67,35.17c-4.17,0-7.23-2.35-7.23-6.52s3.06-6.52,7.23-6.52,7.23,2.35,7.23,6.52S202.83,35.17,198.67,35.17Zm0-8.75c-1.1,0-1.72.86-1.72,2.16s.61,2.13,1.72,2.13,1.72-.86,1.72-2.13S199.77,26.43,198.67,26.43Z"/><path class="cls-1" d="M216.06,26.43h-2.57v3.43c0,.73.37.86,1,.86a5.22,5.22,0,0,0,1.23-.17l.25,4.21a14.83,14.83,0,0,1-3.43.42,4.94,4.94,0,0,1-3.43-1.08c-.74-.69-1.1-1.79-1.1-3.63v-4h-1.72v-4H208V19.32h5.51v3.06h2.57Z"/><path class="cls-1" d="M223.53,35.17c-4.17,0-7.23-2.35-7.23-6.52s3.06-6.52,7.23-6.52,7.23,2.35,7.23,6.52S227.7,35.17,223.53,35.17Zm0-8.75c-1.1,0-1.72.86-1.72,2.16s.61,2.13,1.72,2.13,1.72-.86,1.72-2.13S224.64,26.43,223.53,26.43Z"/><path class="cls-1" d="M242.89,34a7.7,7.7,0,0,1-4.53,1.15c-3.68,0-6.86-2.35-6.86-6.52s3.19-6.52,6.86-6.52a9,9,0,0,1,4.41,1l-.86,4.17a4.65,4.65,0,0,0-2.7-.86,2.1,2.1,0,0,0-2.28,2.16c0,1.4.93,2.13,2.4,2.13a4.61,4.61,0,0,0,2.57-.86Z"/><path class="cls-1" d="M250.73,35.17c-4.17,0-7.23-2.35-7.23-6.52s3.06-6.52,7.23-6.52S258,24.49,258,28.66,254.89,35.17,250.73,35.17Zm0-8.75c-1.1,0-1.72.86-1.72,2.16s.61,2.13,1.72,2.13,1.72-.86,1.72-2.13S251.83,26.43,250.73,26.43Z"/><path class="cls-1" d="M264.86,34.88h-5.51V18h5.51Z"/><rect class="cls-2" x="33.72" y="47.21" width="6.74" height="6.74"/><rect class="cls-3" x="26.98" y="47.21" width="6.74" height="6.74"/><rect class="cls-4" x="20.23" y="47.21" width="6.74" height="6.74"/><rect class="cls-5" x="13.49" y="47.21" width="6.74" height="6.74"/><rect class="cls-6" x="40.47" y="40.47" width="6.74" height="6.74"/><rect class="cls-7" x="33.72" y="40.47" width="6.74" height="6.74"/><rect class="cls-8" x="26.98" y="40.47" width="6.74" height="6.74"/><rect class="cls-9" x="20.23" y="40.47" width="6.74" height="6.74"/><rect class="cls-10" x="13.49" y="40.47" width="6.74" height="6.74"/><rect class="cls-11" x="6.74" y="40.47" width="6.74" height="6.74"/><rect class="cls-12" x="47.21" y="33.72" width="6.74" height="6.74"/><rect class="cls-13" x="40.47" y="33.72" width="6.74" height="6.74"/><rect class="cls-14" x="33.72" y="33.72" width="6.74" height="6.74"/><rect class="cls-8" x="26.98" y="33.72" width="6.74" height="6.74"/><rect class="cls-9" x="20.23" y="33.72" width="6.74" height="6.74"/><rect class="cls-15" x="13.49" y="33.72" width="6.74" height="6.74"/><rect class="cls-16" x="6.74" y="33.72" width="6.74" height="6.74"/><rect class="cls-17" y="33.72" width="6.74" height="6.74"/><rect class="cls-18" x="47.21" y="26.98" width="6.74" height="6.74"/><rect class="cls-19" x="40.47" y="26.98" width="6.74" height="6.74"/><rect class="cls-14" x="33.72" y="26.98" width="6.74" height="6.74"/><rect class="cls-8" x="26.98" y="26.98" width="6.74" height="6.74"/><rect class="cls-9" x="20.23" y="26.98" width="6.74" height="6.74"/><rect class="cls-15" x="13.49" y="26.98" width="6.74" height="6.74"/><rect class="cls-20" x="6.74" y="26.98" width="6.74" height="6.74"/><rect class="cls-21" y="26.98" width="6.74" height="6.74"/><rect class="cls-18" x="47.21" y="20.23" width="6.74" height="6.74"/><rect class="cls-19" x="40.47" y="20.23" width="6.74" height="6.74"/><rect class="cls-14" x="33.72" y="20.23" width="6.74" height="6.74"/><rect class="cls-8" x="26.98" y="20.23" width="6.74" height="6.74"/><rect class="cls-9" x="20.23" y="20.23" width="6.74" height="6.74"/><rect class="cls-15" x="13.49" y="20.23" width="6.74" height="6.74"/><rect class="cls-20" x="6.74" y="20.23" width="6.74" height="6.74"/><rect class="cls-21" y="20.23" width="6.74" height="6.74"/><rect class="cls-12" x="47.21" y="13.49" width="6.74" height="6.74"/><rect class="cls-13" x="40.47" y="13.49" width="6.74" height="6.74"/><rect class="cls-14" x="33.72" y="13.49" width="6.74" height="6.74"/><rect class="cls-8" x="26.98" y="13.49" width="6.74" height="6.74"/><rect class="cls-9" x="20.23" y="13.49" width="6.74" height="6.74"/><rect class="cls-15" x="13.49" y="13.49" width="6.74" height="6.74"/><rect class="cls-16" x="6.74" y="13.49" width="6.74" height="6.74"/><rect class="cls-17" y="13.49" width="6.74" height="6.74"/><rect class="cls-6" x="40.47" y="6.74" width="6.74" height="6.74"/><rect class="cls-7" x="33.72" y="6.74" width="6.74" height="6.74"/><rect class="cls-8" x="26.98" y="6.74" width="6.74" height="6.74"/><rect class="cls-9" x="20.23" y="6.74" width="6.74" height="6.74"/><rect class="cls-10" x="13.49" y="6.74" width="6.74" height="6.74"/><rect class="cls-11" x="6.74" y="6.74" width="6.74" height="6.74"/><rect class="cls-2" x="33.72" width="6.74" height="6.74"/><rect class="cls-3" x="26.98" width="6.74" height="6.74"/><rect class="cls-4" x="20.23" width="6.74" height="6.74"/><rect class="cls-5" x="13.49" width="6.74" height="6.74"/><path class="cls-22" d="M17.76,24.85l1.88-4.21a2.55,2.55,0,0,0-.16-3.15,1.92,1.92,0,0,0-.33-.26,2.08,2.08,0,0,0-1.74-.2,2.83,2.83,0,0,0-1.56,1.21s-2.58,6-3.53,8.7a11.54,11.54,0,0,0,3.12,11.35c3.91,3.91,9.58,4.81,13.2,2.1a2.27,2.27,0,0,0,.42-.28L40.2,30.8a1.77,1.77,0,0,0,.62-2.42c-.7-1-2-.33-2.57,0l-6.41,4.66a.29.29,0,0,1-.41,0,.79.79,0,0,1,.06-.94l9.83-8.34a1.82,1.82,0,0,0,.28-2.64,1.76,1.76,0,0,0-2.59,0l-8.85,6.92a.39.39,0,0,1-.57-.07.55.55,0,0,1,0-.73l10-9.73a2,2,0,0,0,.1-2.77,1.87,1.87,0,0,0-1.36-.58,2,2,0,0,0-1.41.56L26.66,24.37c-.25.24-.73,0-.78-.29A.31.31,0,0,1,26,23.8l7.84-8.93a1.93,1.93,0,1,0-2.73-2.74L19.19,25.27a1.07,1.07,0,0,1-1.35.2A.45.45,0,0,1,17.76,24.85Z"/></g></g></svg>