<svg width="42" height="36" viewBox="0 0 42 36" fill="none" xmlns="http://www.w3.org/2000/svg">
<rect x="4.66663" y="5.8335" width="37.3333" height="29.2174" rx="3" fill="url(#paint0_linear_36_5137)"/>
<rect x="0.85" y="0.85" width="35.6333" height="27.5174" rx="2.15" stroke="#320A8D" stroke-width="1.7"/>
<path fill-rule="evenodd" clip-rule="evenodd" d="M28.1564 13.0634C27.9295 12.9933 27.7026 12.9231 27.4819 12.8529C27.2046 12.7593 26.9335 13.0225 26.9462 13.3676C26.9714 14.0226 26.9966 14.6717 27.0218 15.3267C27.0281 15.5431 26.9146 15.742 26.7381 15.8239C26.3852 15.9818 26.0259 16.1338 25.6666 16.2859C25.3073 16.1397 24.9481 15.9818 24.5951 15.8239C24.4123 15.742 24.3052 15.5431 24.3115 15.3267C24.3367 14.6717 24.3619 14.0226 24.3871 13.3676C24.3998 13.0166 24.1287 12.7593 23.8514 12.8529C23.6244 12.9231 23.4038 12.9991 23.177 13.0634C22.9941 13.1219 22.8555 13.3091 22.8366 13.5371C22.7735 14.3092 22.7042 15.0811 22.6412 15.8473C22.6222 16.0636 22.7294 16.2625 22.9059 16.3502C23.303 16.5432 23.2652 17.1749 22.8302 17.321C22.6349 17.3854 22.4899 17.5667 22.4709 17.783C22.3702 18.9586 22.2693 20.14 22.1684 21.3155C22.1495 21.5436 22.2818 21.7542 22.5088 21.836C22.7798 21.9354 23.0572 22.0348 23.3345 22.1343C23.6812 22.2571 24.0531 22.0173 24.0656 21.6664C24.1034 20.6079 24.1475 19.5493 24.1854 18.4849C24.1917 18.2685 24.3305 18.0814 24.5258 18.0112C24.9103 17.8708 25.2885 17.7304 25.6666 17.5784C26.0448 17.7246 26.423 17.8708 26.8075 18.0112C27.0029 18.0814 27.1417 18.2685 27.1479 18.4849C27.1858 19.5435 27.2298 20.602 27.2677 21.6664C27.2803 22.0173 27.6521 22.2512 27.9988 22.1343C28.2761 22.0348 28.5535 21.9354 28.8245 21.836C29.0451 21.7542 29.1838 21.5436 29.1649 21.3155C29.0641 20.14 28.9631 18.9586 28.8624 17.783C28.8435 17.5667 28.7048 17.3854 28.5031 17.321C28.0681 17.1807 28.0303 16.5432 28.4274 16.3502C28.6102 16.2625 28.7111 16.0578 28.6922 15.8473C28.6291 15.0753 28.5598 14.3033 28.4967 13.5371C28.4778 13.3091 28.3392 13.1161 28.1564 13.0634Z" fill="#320A8D"/>
<line x1="7" y1="18.0165" x2="15.1667" y2="18.0165" stroke="#320A8D" stroke-width="1.3"/>
<line x1="7" y1="14.5165" x2="15.1667" y2="14.5165" stroke="#320A8D" stroke-width="1.3"/>
<line x1="7" y1="21.517" x2="15.1667" y2="21.517" stroke="#320A8D" stroke-width="1.3"/>
<line x1="6.49292" y1="8.35" x2="30.8407" y2="8.35" stroke="#320A8D" stroke-width="1.3"/>
<defs>
<linearGradient id="paint0_linear_36_5137" x1="9.5" y1="11" x2="25.5" y2="39" gradientUnits="userSpaceOnUse">
<stop stop-color="#B7C3E7"/>
<stop offset="1" stop-color="#EFF2FC" stop-opacity="0.56"/>
</linearGradient>
</defs>
</svg>
