<svg width="118" height="28" viewBox="0 0 118 28" fill="none" xmlns="http://www.w3.org/2000/svg">
<path fill-rule="evenodd" clip-rule="evenodd" d="M16.656 0.68984C16.0252 0.479264 15.3943 0.268688 14.7806 0.0581118C14.0094 -0.222575 13.2557 0.567024 13.2909 1.60225C13.361 3.5673 13.431 5.5147 13.501 7.47975C13.5187 8.12888 13.203 8.72556 12.7122 8.97119C11.731 9.4448 10.7318 9.90101 9.73263 10.3572C8.73347 9.91866 7.73455 9.4448 6.75302 8.97119C6.24462 8.72556 5.94683 8.12888 5.96446 7.47975C6.0345 5.5147 6.10454 3.5673 6.17458 1.60225C6.20984 0.549374 5.45606 -0.222575 4.68489 0.0581118C4.0538 0.268688 3.44034 0.496914 2.8095 0.68984C2.3011 0.865361 1.91564 1.42673 1.86299 2.11092C1.68764 4.42701 1.49491 6.74286 1.31957 9.0413C1.26692 9.69043 1.56495 10.2871 2.05572 10.5501C3.15994 11.1292 3.05488 13.0241 1.84535 13.4627C1.30218 13.6558 0.898842 14.1996 0.84619 14.8487C0.566032 18.3753 0.285384 21.9195 0.00498121 25.4461C-0.0476708 26.1303 0.320404 26.762 0.951494 27.0077C1.70503 27.3058 2.47644 27.6041 3.24761 27.9024C4.21176 28.2709 5.2457 27.5514 5.28072 26.4988C5.38578 23.3232 5.50847 20.1474 5.61377 16.9542C5.63116 16.3051 6.01711 15.7437 6.56028 15.5331C7.62949 15.112 8.6813 14.6908 9.73263 14.2346C10.7842 14.6734 11.836 15.112 12.9052 15.5331C13.4484 15.7437 13.8343 16.3051 13.8517 16.9542C13.957 20.13 14.0795 23.3056 14.1848 26.4988C14.2198 27.5514 15.2538 28.2532 16.2179 27.9024C16.9891 27.6041 17.7605 27.3058 18.514 27.0077C19.1275 26.762 19.5132 26.1303 19.4605 25.4461C19.1801 21.9195 18.8995 18.3753 18.6193 14.8487C18.5667 14.1996 18.1812 13.6558 17.6202 13.4627C16.4106 13.0418 16.3056 11.1292 17.4098 10.5501C17.9179 10.2871 18.1986 9.67303 18.1459 9.0413C17.9706 6.72545 17.7779 4.40936 17.6025 2.11092C17.5499 1.42673 17.1644 0.84771 16.656 0.68984Z" fill="#6309FF"/>
<path fill-rule="evenodd" clip-rule="evenodd" d="M33.4879 5.60327H37.0678V11.1055H42.8176V5.60327H46.3977V19.6121H42.8176V13.9109H37.0678V19.6121H33.4879V5.60327Z" fill="#6309FF"/>
<path fill-rule="evenodd" clip-rule="evenodd" d="M51.3618 5.60303H54.9238V13.9829C54.9238 14.8154 55.1589 15.467 55.611 15.9377C56.0628 16.4083 56.7137 16.6434 57.5454 16.6434C58.3589 16.6434 59.0098 16.4083 59.48 15.9558C59.9502 15.5033 60.1851 14.8336 60.1851 13.9829V5.60303H63.7651V14.2001C63.7651 15.9558 63.2046 17.3313 62.0656 18.3268C60.9266 19.3221 59.4259 19.8109 57.5275 19.8109C56.4789 19.8109 55.5566 19.6842 54.7791 19.4126C53.9834 19.1412 53.3327 18.7612 52.8444 18.2543C52.3563 17.7476 51.9765 17.1683 51.7416 16.4988C51.5065 15.8291 51.3797 15.0508 51.3797 14.2001V5.60303H51.3618Z" fill="#6309FF"/>
<path fill-rule="evenodd" clip-rule="evenodd" d="M68.7207 5.60303H73.1143L76.1701 12.5893H76.3148L79.3162 5.60303H83.7277V19.6119H80.2561V14.3269L80.4552 10.5441H80.3105L76.2423 19.4126L72.1744 10.5441H72.0116L72.2104 14.3629V19.6119H68.7207V5.60303Z" fill="#6309FF"/>
<path fill-rule="evenodd" clip-rule="evenodd" d="M95.9524 14.7445L95.5366 13.4413L94.4154 9.36902H94.2888L93.0776 13.4413L92.6615 14.7445H95.9524ZM92.1904 5.60327H96.3669L101.43 19.6121H97.488L96.8192 17.4943H91.7744L91.0874 19.6121H87.3807L92.1904 5.60327Z" fill="#6309FF"/>
<mask id="mask0_36_2840" style="mask-type:alpha" maskUnits="userSpaceOnUse" x="104" y="5" width="14" height="15">
<path fill-rule="evenodd" clip-rule="evenodd" d="M104.846 5.60303H117.448V19.6119H104.846V5.60303Z" fill="white"/>
</mask>
<g mask="url(#mask0_36_2840)">
<path fill-rule="evenodd" clip-rule="evenodd" d="M104.846 5.60303H108.95L113.941 14.5078H114.086L113.886 10.5622V5.60303H117.448V19.6119H113.362L108.408 10.7976H108.263L108.444 14.6164V19.6119H104.864V5.60303H104.846Z" fill="#6309FF"/>
</g>
</svg>
