<svg width="471" height="431" viewBox="0 0 471 431" fill="none" xmlns="http://www.w3.org/2000/svg">
<path d="M284.871 172.183C284.871 172.183 240.921 158.268 214.926 188.878C204.537 201.121 172.376 236.227 155.461 262.77C126.349 262.115 100.399 235.527 76.9563 282.966C69.6163 297.808 64.4218 328.983 84.1156 333.546C101.89 337.657 170.095 344.864 186.966 341.927C234.846 333.546 227.754 282.989 227.754 282.989L284.871 172.206V172.183Z" fill="#F6F7FE"/>
<path d="M282.68 199.698L270.959 128.765L295.892 100.278C295.892 100.278 318.161 143.787 336.409 158.855C344.811 165.79 282.68 199.698 282.68 199.698Z" fill="#DADEF2"/>
<path d="M275.453 155.964L270.959 128.787L295.892 100.301C295.892 100.301 299.8 112.477 291.33 133.78C285.3 148.938 275.453 155.964 275.453 155.964Z" fill="#ADB4DC"/>
<path d="M266.058 149.367C274.934 143.652 304.452 125.354 295.892 100.301C287.333 75.2257 274.911 59.7288 274.911 59.7288C274.911 59.7288 223.328 60.8583 220.844 80.5118C219.669 89.7287 228.884 106.174 231.142 123.049C232.226 131.182 238.415 128.087 240.425 132.831C241.59 135.577 242.98 138.548 244.623 141.309C244.907 141.787 245.2 142.26 245.5 142.724C245.863 143.285 246.237 143.834 246.623 144.366C251.28 150.791 257.616 154.81 266.058 149.39V149.367Z" fill="#DADEF2"/>
<path d="M313.305 61.7393C316.603 70.8432 303.21 75.8582 281.438 85.2332C271.253 89.6157 253.32 79.4049 246.319 71.6112C243.112 79.6534 231.368 94.5404 224.322 97.5675C208.332 81.054 224.999 50.5571 246.748 41.1821C268.497 31.8071 303.91 39.9848 313.283 61.7393H313.305Z" fill="#320A8D"/>
<path d="M295.147 39.0812C305.936 39.0812 314.682 30.3326 314.682 19.5406C314.682 8.74863 305.936 0 295.147 0C284.357 0 275.611 8.74863 275.611 19.5406C275.611 30.3326 284.357 39.0812 295.147 39.0812Z" fill="#320A8D"/>
<path d="M276.605 79.2694L303.029 114.375C303.029 114.375 325.907 97.6354 319.132 75.2258C312.356 52.8162 305.852 51.2123 305.852 51.2123L276.605 79.2694Z" fill="#320A8D"/>
<path d="M254.607 172.771C254.607 172.771 211.516 249.736 211.516 267.537C211.516 285.338 243.27 351.709 243.27 351.709L365.362 350.218C365.362 350.218 401.814 274.156 397.387 229.924C392.938 185.692 385.846 167.823 385.846 167.823C385.846 167.823 368.366 160.098 343.049 156.935C330.785 155.399 316.67 154.97 301.809 156.98C292.911 158.2 283.719 160.301 274.527 163.622C267.864 166.016 261.202 169.021 254.607 172.771Z" fill="#F6F7FE"/>
<path d="M243.97 192.357C243.97 192.357 211.516 249.736 211.516 267.515C211.516 285.293 243.27 351.686 243.27 351.686" stroke="#320A8D" stroke-width="0.5" stroke-miterlimit="10"/>
<path d="M255.123 348.224C224.724 357.079 241.621 366.121 241.621 366.121L234.823 396.302C234.823 396.302 249.661 456.979 285.3 456.979C320.938 456.979 410.17 456.844 410.17 415.707C410.17 374.57 373.403 341.791 373.403 341.791C373.403 341.791 381.736 338.742 372.996 332.846C364.256 326.949 338.837 323.358 275.623 341.791L255.123 348.224Z" fill="#320A8D"/>
<path d="M144.417 787.701L241.621 366.144C241.621 366.144 273.962 442.115 294.627 430.91C315.292 419.728 354.319 448.892 354.319 448.892L209.032 752.528C209.032 752.528 226.941 776.429 144.417 787.724V787.701Z" fill="#320A8D"/>
<path d="M269.987 395.127L375.684 767.641C375.684 767.641 372.928 770.623 374.938 775.119C377.061 779.863 387.812 781.489 387.812 781.489C387.812 781.489 414.845 787.295 417.646 782.212C420.469 777.129 410.148 415.707 410.148 415.707C410.148 415.707 392.983 357.379 326.404 354.442C259.824 351.505 269.942 395.127 269.942 395.127H269.987Z" fill="#320A8D"/>
<path d="M292.251 102.405C296.993 100.361 298.726 93.8006 296.121 87.7503C293.516 81.7001 287.56 78.4516 282.817 80.4947C278.074 82.5377 276.341 89.0987 278.946 95.1489C281.551 101.199 287.508 104.448 292.251 102.405Z" fill="#DADEF2"/>
<path d="M246.861 107.846C252.349 107.846 256.798 103.396 256.798 97.9064C256.798 92.4168 252.349 87.9667 246.861 87.9667C241.373 87.9667 236.924 92.4168 236.924 97.9064C236.924 103.396 241.373 107.846 246.861 107.846Z" stroke="#320A8D" stroke-width="0.5" stroke-miterlimit="10"/>
<path d="M221.182 118.915C226.671 118.915 231.12 114.465 231.12 108.976C231.12 103.486 226.671 99.0359 221.182 99.0359C215.694 99.0359 211.245 103.486 211.245 108.976C211.245 114.465 215.694 118.915 221.182 118.915Z" stroke="#320A8D" stroke-width="0.5" stroke-miterlimit="10"/>
<path d="M255.285 92.3492L281.099 81.2347" stroke="#320A8D" stroke-width="0.5" stroke-miterlimit="10"/>
<path d="M279.315 284.547L260.389 275.263L244.67 267.492C244.67 267.492 231.503 272.145 225.383 270.609C219.262 269.096 220.392 265.956 220.392 265.956L251.22 251.724L282.183 272.823L279.36 284.547H279.315Z" fill="#ADB4DC"/>
<path d="M331.441 292.341C331.441 292.341 321.887 289.472 310.414 289.472C302.284 289.472 282.793 293.561 273.692 293.064C269.897 292.861 266.577 290.489 265.155 286.987L258.854 271.513L241.012 262.703C241.012 262.703 221.77 267.74 221.77 262.341C221.77 257.936 242.367 250.956 250.023 248.516C251.785 247.951 253.704 248.245 255.195 249.307L278.412 265.685C280.219 266.972 286.904 267.108 289.14 267.108L325.817 264.239L331.441 292.341Z" fill="#DADEF2"/>
<path d="M370.399 161.927C357.797 158.335 341.83 172.093 337.245 184.359C321.774 225.655 341.333 251.023 355.584 258.32C376.52 269.051 434.088 324.984 434.088 324.984C434.088 324.984 470.72 329.163 470.72 291.483C470.72 258.026 431.242 179.231 370.422 161.927H370.399Z" fill="#F6F7FE"/>
<path d="M331.147 354.284C366.582 349.992 455.634 339.532 466.429 310.346C477.224 281.159 435.352 263.832 435.352 263.832C435.352 263.832 311.024 259.246 296.299 265.007C281.574 270.767 295.712 358.553 331.147 354.261V354.284Z" fill="#F6F7FE"/>
<path d="M435.33 263.832C435.33 263.832 311.001 259.246 296.276 265.007C288.936 267.876 288.756 291.076 294.808 313.124" stroke="#320A8D" stroke-width="0.5" stroke-miterlimit="10"/>
<path d="M331.666 210.022C331.666 210.022 328.437 235.527 346.278 251.362" stroke="#320A8D" stroke-width="0.5" stroke-miterlimit="10"/>
<path d="M127.456 180.18H6.26662C1.68194 180.18 -1.3444 184.947 0.597876 189.081L46.2866 287.078H185.363L133.125 183.795C132.086 181.581 129.895 180.18 127.456 180.18Z" fill="#CACFE8"/>
<path d="M259.689 296.95H46.2866V287.1H181.275L264.612 292.025C264.612 294.736 262.399 296.95 259.689 296.95Z" fill="#E9EBFA"/>
<path d="M127.456 180.18H6.26662C1.68194 180.18 -1.3444 184.947 0.597876 189.081L46.2866 287.078H181.275L133.125 183.795C132.086 181.581 129.895 180.18 127.456 180.18Z" fill="#E9EBFA"/>
<path d="M181.275 287.1H46.2866V296.95H181.275V287.1Z" fill="#CACFE8"/>
<path d="M56.0885 224.254L42.3345 235.323L60.4699 246.392" stroke="#320A8D" stroke-width="0.5" stroke-linecap="round" stroke-linejoin="round"/>
<path d="M90.6431 224.254L110.156 235.323L95.0245 246.392" stroke="#320A8D" stroke-width="0.5" stroke-linecap="round" stroke-linejoin="round"/>
<path d="M84.116 217.387L67.4033 253.667" stroke="#320A8D" stroke-width="0.5" stroke-linecap="round" stroke-linejoin="round"/>
<path d="M55.6589 284.638C55.6589 284.638 50.9161 280.007 49.9902 286.174C49.2449 291.167 49.6514 296.769 50.2612 300.271C50.5774 302.1 53.9425 303.388 55.7944 303.23L70.2034 304.246L55.6589 284.661V284.638Z" fill="#ADB4DC"/>
<path d="M58.7986 283.463C56.9692 281.633 53.988 281.023 53.6718 282.65C53.1524 285.383 53.8525 292.545 54.9592 296.95C56.1336 301.558 58.7534 304.133 69.8424 304.224C78.4924 304.314 94.1661 303.185 100.399 296.95C91.9754 288.523 74.9014 293.38 74.9014 293.38C74.9014 293.38 71.9428 289.834 66.4773 284.367C63.5413 281.43 58.7986 280.481 58.7986 283.463Z" fill="#DADEF2"/>
<path d="M422.623 198.224C439.789 217.557 473.323 263.524 470.123 292.724C466.923 321.924 441.789 333.557 429.623 335.724C415.956 340.224 380.823 350.024 349.623 353.224" stroke="#320A8D" stroke-width="0.5"/>
</svg>
