<svg width="43" height="35" viewBox="0 0 43 35" fill="none" xmlns="http://www.w3.org/2000/svg">
<path d="M5.95264 14.6648C5.95264 13.0385 7.27097 11.7202 8.89721 11.7202H39.8152C41.4414 11.7202 42.7598 13.0385 42.7598 14.6648V31.5961C42.7598 33.2223 41.4414 34.5406 39.8152 34.5406H8.89721C7.27096 34.5406 5.95264 33.2223 5.95264 31.5961V14.6648Z" fill="url(#paint0_linear_36_2975)"/>
<path fill-rule="evenodd" clip-rule="evenodd" d="M15.3751 13.6336C15.3751 13.227 15.7047 12.8975 16.1113 12.8975H18.7614C19.1679 12.8975 19.4975 13.227 19.4975 13.6336C19.4975 14.0402 19.1679 14.3697 18.7614 14.3697H16.1113C15.7047 14.3697 15.3751 14.0402 15.3751 13.6336Z" fill="#320A8D"/>
<path fill-rule="evenodd" clip-rule="evenodd" d="M1.536 12.0141L1.53601 24.9702C1.53601 27.4096 3.5135 29.3871 5.95287 29.3871L28.9205 29.3871C31.3599 29.3871 33.3374 27.4096 33.3374 24.9702L33.3374 12.0141C33.3374 9.57477 31.3599 7.59728 28.9205 7.59728L5.95286 7.59728C3.5135 7.59728 1.536 9.57477 1.536 12.0141ZM0.0637204 24.9702C0.0637206 28.2227 2.70038 30.8594 5.95287 30.8594L28.9205 30.8594C32.173 30.8594 34.8096 28.2227 34.8096 24.9702L34.8096 12.0141C34.8096 8.76165 32.173 6.12499 28.9205 6.12499L5.95286 6.12499C2.70038 6.12499 0.0637197 8.76165 0.0637199 12.0141L0.0637204 24.9702Z" fill="#320A8D"/>
<path fill-rule="evenodd" clip-rule="evenodd" d="M1.536 12.0141L1.53601 24.9702C1.53601 27.4096 3.51349 29.3871 5.95285 29.3871L33.0429 29.3871C35.4823 29.3871 37.4598 27.4096 37.4598 24.9702L37.4598 12.0141C37.4598 9.57477 35.4823 7.59727 33.0429 7.59727L5.95286 7.59728C3.5135 7.59728 1.536 9.57477 1.536 12.0141ZM0.0637204 24.9702C0.0637206 28.2227 2.70037 30.8594 5.95285 30.8594L33.0429 30.8594C36.2954 30.8594 38.932 28.2227 38.932 24.9702L38.932 12.0141C38.932 8.76165 36.2954 6.12499 33.0429 6.12499L5.95286 6.12499C2.70038 6.12499 0.0637197 8.76165 0.0637199 12.0141L0.0637204 24.9702Z" fill="#320A8D"/>
<path fill-rule="evenodd" clip-rule="evenodd" d="M14.4054 0.67942H22.4148C22.9246 0.667023 23.432 0.750999 23.9082 0.926557C24.3881 1.10344 24.8269 1.36986 25.1995 1.71043C25.572 2.05099 25.871 2.45903 26.0792 2.9112C26.2875 3.36348 26.4006 3.85074 26.4126 4.345L26.4128 4.35358V6.36164H24.8832V4.37131C24.8749 4.07337 24.8062 3.78004 24.6808 3.50781C24.5542 3.23302 24.3725 2.985 24.146 2.77795C23.9196 2.57091 23.6528 2.40897 23.3612 2.30146C23.0695 2.19394 22.7587 2.14295 22.4465 2.15141L22.4357 2.1517H14.3844L14.3737 2.15141C14.0615 2.14295 13.7507 2.19394 13.459 2.30146C13.1673 2.40897 12.9006 2.57091 12.6741 2.77795C12.4476 2.985 12.2659 3.23302 12.1394 3.50781C12.0139 3.78027 11.945 4.07364 11.9368 4.37134V6.27747H10.4071V4.35358L10.4073 4.345C10.4193 3.85049 10.5327 3.36325 10.7409 2.9112C10.9492 2.45903 11.2482 2.05099 11.6207 1.71043C11.9932 1.36986 12.4321 1.10344 12.9119 0.926557C13.3882 0.750999 13.8955 0.667023 14.4054 0.67942Z" fill="#320A8D"/>
<path fill-rule="evenodd" clip-rule="evenodd" d="M0.557151 11.1558C0.706661 10.7777 1.13435 10.5925 1.51242 10.742L14.3745 15.8283C16.4615 16.6537 18.7845 16.6537 20.8715 15.8283L33.3613 10.8892C33.7394 10.7397 34.167 10.925 34.3166 11.303C34.4661 11.6811 34.2808 12.1088 33.9027 12.2583L21.413 17.1974C18.9781 18.1603 16.2679 18.1603 13.833 17.1974L0.970999 12.1111C0.592927 11.9616 0.407641 11.5339 0.557151 11.1558Z" fill="#320A8D"/>
<defs>
<linearGradient id="paint0_linear_36_2975" x1="12.4706" y1="11.7202" x2="39.2843" y2="40.539" gradientUnits="userSpaceOnUse">
<stop stop-color="#244CB3" stop-opacity="0.2"/>
<stop offset="1" stop-color="#B4C2E5" stop-opacity="0.07"/>
</linearGradient>
</defs>
</svg>
