<svg width="45" height="46" viewBox="0 0 45 46" fill="none" xmlns="http://www.w3.org/2000/svg">
<path d="M6.26318 27.4697C6.26318 17.3684 14.716 9.17969 25.1432 9.17969C35.5703 9.17969 44.0232 17.3684 44.0232 27.4697C44.0232 37.571 35.5703 45.7597 25.1432 45.7597C14.716 45.7597 6.26318 37.571 6.26318 27.4697Z" fill="url(#paint0_linear_36_3083)"/>
<path fill-rule="evenodd" clip-rule="evenodd" d="M19.2221 36.8709C28.5086 36.8709 36.0367 29.1666 36.0367 19.6629C36.0367 10.1591 28.5086 2.45478 19.2221 2.45478C9.93569 2.45478 2.40754 10.1591 2.40754 19.6629C2.40754 29.1666 9.93569 36.8709 19.2221 36.8709ZM37.6381 19.6629C37.6381 30.0717 29.393 38.5098 19.2221 38.5098C9.05127 38.5098 0.806152 30.0717 0.806152 19.6629C0.806152 9.25398 9.05127 0.815918 19.2221 0.815918C29.393 0.815918 37.6381 9.25398 37.6381 19.6629Z" fill="#320A8D"/>
<path fill-rule="evenodd" clip-rule="evenodd" d="M19.2224 31.1347C25.4133 31.1347 30.4321 25.9985 30.4321 19.6627C30.4321 13.3268 25.4133 8.19062 19.2224 8.19062C13.0314 8.19062 8.01264 13.3268 8.01264 19.6627C8.01264 25.9985 13.0314 31.1347 19.2224 31.1347ZM32.0335 19.6627C32.0335 26.9036 26.2978 32.7736 19.2224 32.7736C12.147 32.7736 6.41125 26.9036 6.41125 19.6627C6.41125 12.4217 12.147 6.55176 19.2224 6.55176C26.2978 6.55176 32.0335 12.4217 32.0335 19.6627Z" fill="#320A8D"/>
<path fill-rule="evenodd" clip-rule="evenodd" d="M22.5607 12.7558C22.2542 12.6526 21.9476 12.5495 21.6494 12.4464C21.2747 12.309 20.9085 12.6956 20.9256 13.2025C20.9596 14.1648 20.9937 15.1183 21.0277 16.0806C21.0363 16.3984 20.8829 16.6906 20.6444 16.8109C20.1676 17.0428 19.6821 17.2662 19.1966 17.4896C18.7111 17.2748 18.2258 17.0428 17.7488 16.8109C17.5018 16.6906 17.3571 16.3984 17.3657 16.0806C17.3997 15.1183 17.4337 14.1648 17.4678 13.2025C17.4849 12.687 17.1186 12.309 16.7439 12.4464C16.4373 12.5495 16.1392 12.6613 15.8327 12.7558C15.5856 12.8417 15.3983 13.1166 15.3728 13.4516C15.2876 14.5857 15.1939 15.7197 15.1087 16.8452C15.0831 17.1631 15.2279 17.4552 15.4664 17.584C16.0029 17.8676 15.9519 18.7954 15.3642 19.0102C15.1003 19.1048 14.9043 19.371 14.8787 19.6889C14.7426 21.4157 14.6062 23.1512 14.4699 24.8781C14.4444 25.2131 14.6232 25.5225 14.9299 25.6427C15.296 25.7887 15.6708 25.9348 16.0455 26.0809C16.514 26.2613 17.0164 25.909 17.0334 25.3935C17.0845 23.8386 17.1441 22.2835 17.1953 20.7199C17.2037 20.402 17.3912 20.1271 17.6552 20.024C18.1747 19.8178 18.6858 19.6116 19.1966 19.3882C19.7076 19.6031 20.2187 19.8178 20.7382 20.024C21.0021 20.1271 21.1897 20.402 21.1981 20.7199C21.2493 22.275 21.3088 23.8299 21.3599 25.3935C21.3769 25.909 21.8793 26.2526 22.3478 26.0809C22.7225 25.9348 23.0974 25.7887 23.4635 25.6427C23.7616 25.5225 23.949 25.2131 23.9234 24.8781C23.7872 23.1512 23.6508 21.4157 23.5147 19.6889C23.4891 19.371 23.3018 19.1048 23.0292 19.0102C22.4415 18.8041 22.3904 17.8676 22.927 17.584C23.1739 17.4552 23.3102 17.1545 23.2847 16.8452C23.1995 15.7112 23.1058 14.5771 23.0206 13.4516C22.995 13.1166 22.8077 12.8331 22.5607 12.7558Z" fill="#320A8D"/>
<defs>
<linearGradient id="paint0_linear_36_3083" x1="6.26318" y1="16.3366" x2="33.6237" y2="46.6264" gradientUnits="userSpaceOnUse">
<stop stop-color="#244CB3" stop-opacity="0.34"/>
<stop offset="1" stop-color="#B4C2E5" stop-opacity="0.07"/>
</linearGradient>
</defs>
</svg>
